<?xml version="1.0" encoding="UTF-8" standalone="no"?>
<svg width="200px" height="200px" viewBox="0 0 200 200" version="1.1" xmlns="http://www.w3.org/2000/svg" xmlns:xlink="http://www.w3.org/1999/xlink" xmlns:sketch="http://www.bohemiancoding.com/sketch/ns">
    <!-- Generator: Sketch 3.3 (11970) - http://www.bohemiancoding.com/sketch -->
    <title>discussion</title>
    <desc>Created with Sketch.</desc>
    <defs></defs>
    <g id="Page-1" stroke="none" stroke-width="1" fill="none" fill-rule="evenodd" sketch:type="MSPage">
        <g id="discussion" sketch:type="MSLayerGroup" fill="#9B9B9B" opacity="0.329407649">
            <path d="M166.89347,149.830691 C163.240919,131.06699 150.735926,120.048431 130.923403,120.485263 C128.541383,120.538535 123.25772,120.564231 117.297816,120.567991 C111.337912,120.564231 106.054248,120.538535 103.672229,120.485263 C92.2064857,120.232064 83.1943919,123.822606 76.9230769,130.523614 C95.7606963,131.78397 107.689003,143.449942 111.366443,162.338989 L111.986229,166.773738 L144.191444,166.773738 L144.191444,150.930604 C146.314257,151.945282 147.00446,158.093513 147.06395,158.221993 C147.06395,158.221993 147.528941,161.558082 148.25678,166.773738 L169.262134,166.773738 L166.89347,149.830691" id="Fill-1" sketch:type="MSShapeGroup"></path>
            <path d="M118.470733,114.565388 C132.914014,114.565388 144.633158,102.819105 144.633158,88.3262946 C144.633158,73.8371926 132.914014,62.0909091 118.470733,62.0909091 C104.015746,62.0909091 92.3076923,73.8371926 92.3076923,88.3262946 C92.3076923,102.819105 104.015746,114.565388 118.470733,114.565388" id="Fill-2" sketch:type="MSShapeGroup"></path>
            <path d="M53.8550406,126.856297 C68.2987643,126.856297 80.0177736,115.109937 80.0177736,100.617565 C80.0177736,86.1275817 68.2987643,74.3818182 53.8550406,74.3818182 C39.4000087,74.3818182 27.6923077,86.1275817 27.6923077,100.617565 C27.6923077,115.109937 39.4000087,126.856297 53.8550406,126.856297" id="Fill-3" sketch:type="MSShapeGroup"></path>
            <path d="M21.7738202,182.137375 L107.7289,182.137375 L105.273458,165.194474 C101.486971,146.430037 88.5253938,135.411825 67.9878039,135.848897 C65.5195978,135.902169 60.0422589,135.927594 53.8641463,135.931226 C47.6866415,135.927594 42.2093026,135.902169 39.7404887,135.848897 C19.2028988,135.411825 6.24132197,146.430037 2.45483489,165.194474 L0,182.137375 L21.7738202,182.137375" id="Fill-4" sketch:type="MSShapeGroup"></path>
            <path d="M126.153846,41.2181528 C126.153846,27.2904234 142.000924,16 161.550485,16 C181.099446,16 196.947124,27.2904234 196.947124,41.2181528 C196.947124,55.1458822 181.099446,66.4363056 161.550485,66.4363056 C160.84987,66.4363056 160.154644,66.4201791 159.464208,66.3916475 C157.617458,68.8081442 149.181931,74.5448429 146.736964,74.6478045 C146.353122,74.6645513 147.782497,73.2069622 148.683117,71.0298822 C149.356786,69.4017241 150.105306,67.5409721 149.462776,64.9278559 C135.86605,61.4073129 126.153846,52.1215398 126.153846,41.2181528 Z" id="Fill-5" sketch:type="MSShapeGroup"></path>
        </g>
    </g>
</svg>